<svg width="22" height="18" viewBox="0 0 22 18" fill="none" xmlns="http://www.w3.org/2000/svg">
<path fill-rule="evenodd" clip-rule="evenodd" d="M0.493164 3C0.493164 2.20435 0.823417 1.44129 1.41127 0.87868C1.99913 0.316071 2.79643 0 3.62778 0H18.256C19.0873 0 19.8846 0.316071 20.4725 0.87868C21.0603 1.44129 21.3906 2.20435 21.3906 3V15C21.3906 15.7956 21.0603 16.5587 20.4725 17.1213C19.8846 17.6839 19.0873 18 18.256 18H3.62778C2.79643 18 1.99913 17.6839 1.41127 17.1213C0.823417 16.5587 0.493164 15.7956 0.493164 15V3ZM5.71752 4C5.44041 4 5.17464 4.10536 4.97869 4.29289C4.78274 4.48043 4.67265 4.73478 4.67265 5V9C4.67265 9.26522 4.78274 9.51957 4.97869 9.70711C5.17464 9.89464 5.44041 10 5.71752 10H9.89701C10.1741 10 10.4399 9.89464 10.6358 9.70711C10.8318 9.51957 10.9419 9.26522 10.9419 9V5C10.9419 4.73478 10.8318 4.48043 10.6358 4.29289C10.4399 4.10536 10.1741 4 9.89701 4H5.71752ZM6.76239 8V6H8.85214V8H6.76239ZM14.0765 4C13.7994 4 13.5336 4.10536 13.3377 4.29289C13.1417 4.48043 13.0316 4.73478 13.0316 5C13.0316 5.26522 13.1417 5.51957 13.3377 5.70711C13.5336 5.89464 13.7994 6 14.0765 6H16.1662C16.4434 6 16.7091 5.89464 16.9051 5.70711C17.101 5.51957 17.2111 5.26522 17.2111 5C17.2111 4.73478 17.101 4.48043 16.9051 4.29289C16.7091 4.10536 16.4434 4 16.1662 4H14.0765ZM14.0765 8C13.7994 8 13.5336 8.10536 13.3377 8.29289C13.1417 8.48043 13.0316 8.73478 13.0316 9C13.0316 9.26522 13.1417 9.51957 13.3377 9.70711C13.5336 9.89464 13.7994 10 14.0765 10H16.1662C16.4434 10 16.7091 9.89464 16.9051 9.70711C17.101 9.51957 17.2111 9.26522 17.2111 9C17.2111 8.73478 17.101 8.48043 16.9051 8.29289C16.7091 8.10536 16.4434 8 16.1662 8H14.0765ZM5.71752 12C5.44041 12 5.17464 12.1054 4.97869 12.2929C4.78274 12.4804 4.67265 12.7348 4.67265 13C4.67265 13.2652 4.78274 13.5196 4.97869 13.7071C5.17464 13.8946 5.44041 14 5.71752 14H16.1662C16.4434 14 16.7091 13.8946 16.9051 13.7071C17.101 13.5196 17.2111 13.2652 17.2111 13C17.2111 12.7348 17.101 12.4804 16.9051 12.2929C16.7091 12.1054 16.4434 12 16.1662 12H5.71752Z" fill="#6A6E79"/>
</svg>
