<svg width="19" height="18" viewBox="0 0 19 18" fill="none" xmlns="http://www.w3.org/2000/svg">
    <path fill-rule="evenodd" clip-rule="evenodd"
        d="M0 3.33333C0 2.58189 0.300267 1.86122 0.834746 1.32986C1.36922 0.798511 2.09413 0.5 2.85 0.5H16.15C16.9059 0.5 17.6308 0.798511 18.1653 1.32986C18.6997 1.86122 19 2.58189 19 3.33333V14.6667C19 15.4181 18.6997 16.1388 18.1653 16.6701C17.6308 17.2015 16.9059 17.5 16.15 17.5H2.85C2.09413 17.5 1.36922 17.2015 0.834746 16.6701C0.300267 16.1388 0 15.4181 0 14.6667V3.33333ZM4.75 4.27778C4.49804 4.27778 4.25641 4.37728 4.07825 4.5544C3.90009 4.73152 3.8 4.97174 3.8 5.22222V9C3.8 9.25048 3.90009 9.49071 4.07825 9.66782C4.25641 9.84494 4.49804 9.94444 4.75 9.94444H8.55C8.80196 9.94444 9.04359 9.84494 9.22175 9.66782C9.39991 9.49071 9.5 9.25048 9.5 9V5.22222C9.5 4.97174 9.39991 4.73152 9.22175 4.5544C9.04359 4.37728 8.80196 4.27778 8.55 4.27778H4.75ZM5.7 8.05556V6.16667H7.6V8.05556H5.7ZM12.35 4.27778C12.098 4.27778 11.8564 4.37728 11.6782 4.5544C11.5001 4.73152 11.4 4.97174 11.4 5.22222C11.4 5.4727 11.5001 5.71293 11.6782 5.89005C11.8564 6.06716 12.098 6.16667 12.35 6.16667H14.25C14.502 6.16667 14.7436 6.06716 14.9218 5.89005C15.0999 5.71293 15.2 5.4727 15.2 5.22222C15.2 4.97174 15.0999 4.73152 14.9218 4.5544C14.7436 4.37728 14.502 4.27778 14.25 4.27778H12.35ZM12.35 8.05556C12.098 8.05556 11.8564 8.15506 11.6782 8.33218C11.5001 8.50929 11.4 8.74952 11.4 9C11.4 9.25048 11.5001 9.49071 11.6782 9.66782C11.8564 9.84494 12.098 9.94444 12.35 9.94444H14.25C14.502 9.94444 14.7436 9.84494 14.9218 9.66782C15.0999 9.49071 15.2 9.25048 15.2 9C15.2 8.74952 15.0999 8.50929 14.9218 8.33218C14.7436 8.15506 14.502 8.05556 14.25 8.05556H12.35ZM4.75 11.8333C4.49804 11.8333 4.25641 11.9328 4.07825 12.11C3.90009 12.2871 3.8 12.5273 3.8 12.7778C3.8 13.0283 3.90009 13.2685 4.07825 13.4456C4.25641 13.6227 4.49804 13.7222 4.75 13.7222H14.25C14.502 13.7222 14.7436 13.6227 14.9218 13.4456C15.0999 13.2685 15.2 13.0283 15.2 12.7778C15.2 12.5273 15.0999 12.2871 14.9218 12.11C14.7436 11.9328 14.502 11.8333 14.25 11.8333H4.75Z"
        fill="#B0D136" />
</svg>