<svg width="24" height="28" viewBox="0 0 24 28" fill="none" xmlns="http://www.w3.org/2000/svg">
    <path
        d="M2.66704 0C1.18683 0 0 1.18667 0 2.66667V24C0 24.7072 0.280991 25.3855 0.781157 25.8856C1.28132 26.3857 1.95969 26.6667 2.66704 26.6667H8.00111V24.12L10.7882 21.3333H2.66704V18.6667H13.4552L16.1222 16H2.66704V13.3333H18.7893L21.3363 10.7867V8L13.3352 0H2.66704ZM12.0017 2L19.336 9.33333H12.0017V2ZM21.5363 14.6667C21.4376 14.6645 21.3395 14.6823 21.2479 14.7189C21.1562 14.7556 21.0729 14.8104 21.0029 14.88L19.6427 16.24L22.4298 19.0133L23.79 17.6667C24.07 17.3733 24.07 16.8933 23.79 16.6133L22.0564 14.88C21.9883 14.8116 21.9072 14.7576 21.8179 14.7209C21.7286 14.6843 21.6328 14.6658 21.5363 14.6667ZM18.856 17.0267L10.6681 25.2267V28H13.4419L21.643 19.8L18.856 17.0267Z"
        fill="white" />
</svg>