<svg width="38" height="39" viewBox="0 0 38 39" fill="none" xmlns="http://www.w3.org/2000/svg">
    <path
        d="M1.97187 23.176C1.97187 24.5215 1.86423 24.9598 1.58742 25.2827C1.27936 25.5601 0.87941 25.7135 0.464844 25.7133L0.572489 26.4822C1.21521 26.4909 1.83885 26.2638 2.32557 25.844C2.58745 25.5247 2.78233 25.1558 2.89857 24.7595C3.01483 24.3632 3.05006 23.9476 3.00219 23.5373V18.4473H1.97187V23.1452V23.176Z"
        fill="#B0D136" />
    <path
        d="M9.65411 22.5687C9.65411 23.1453 9.65411 23.6605 9.70023 24.1064H8.78525L8.72374 23.1915C8.53236 23.5152 8.25867 23.7825 7.93049 23.9662C7.60231 24.1498 7.23135 24.2433 6.85533 24.2371C5.96342 24.2371 4.90234 23.7528 4.90234 21.7767V18.4935H5.93266V21.5691C5.93266 22.6379 6.26329 23.3529 7.19365 23.3529C7.38506 23.355 7.57494 23.3188 7.75219 23.2465C7.92943 23.1742 8.09045 23.0672 8.22581 22.9319C8.36116 22.7965 8.46813 22.6355 8.54043 22.4583C8.61272 22.281 8.64891 22.0911 8.64685 21.8997V18.4551H9.67716V22.5379L9.65411 22.5687Z"
        fill="#B0D136" />
    <path
        d="M11.6086 20.3241C11.6086 19.609 11.6086 19.0246 11.5625 18.4941H12.4852L12.5313 19.4552C12.7369 19.108 13.0328 18.823 13.3876 18.6307C13.7424 18.4385 14.1426 18.3461 14.5458 18.3634C15.9144 18.3634 16.9448 19.509 16.9448 21.216C16.9448 23.2305 15.7068 24.23 14.369 24.23C14.0265 24.2453 13.686 24.172 13.3802 24.0171C13.0744 23.8621 12.8138 23.6309 12.6236 23.3458V26.4214H11.6086V20.3471V20.3241ZM12.6236 21.8234C12.6264 21.9629 12.6418 22.1019 12.6697 22.2386C12.7569 22.58 12.9555 22.8826 13.2341 23.0984C13.5126 23.3143 13.8551 23.4311 14.2075 23.4304C15.2916 23.4304 15.9298 22.5462 15.9298 21.2621C15.9298 20.1395 15.3301 19.1784 14.2459 19.1784C13.8169 19.2135 13.4154 19.404 13.1167 19.714C12.8181 20.0239 12.6427 20.4322 12.6236 20.8623V21.8234Z"
        fill="#B0D136" />
    <path
        d="M18.7825 18.488L20.0204 21.802C20.1511 22.171 20.2895 22.617 20.3818 22.9476C20.4894 22.6093 20.6048 22.1787 20.7432 21.7789L21.8658 18.488H22.9499L21.4121 22.4863C20.6432 24.4085 20.1742 25.4004 19.4668 26.0001C19.1105 26.3256 18.6761 26.5533 18.2058 26.6614L17.9521 25.8002C18.2809 25.6922 18.5862 25.5226 18.8517 25.3004C19.2268 24.9947 19.5245 24.6049 19.7205 24.1625C19.7625 24.0859 19.7911 24.0026 19.8051 23.9164C19.7964 23.8236 19.773 23.7328 19.7359 23.6473L17.6445 18.4727H18.7671L18.7825 18.488Z"
        fill="#B0D136" />
    <path
        d="M25.6844 16.875V18.4897H27.1607V19.2586H25.6844V22.288C25.6844 22.98 25.8844 23.3798 26.4533 23.3798C26.6554 23.3831 26.8571 23.3599 27.0531 23.3106L27.0992 24.0795C26.8053 24.1814 26.4951 24.2283 26.1842 24.2179C25.9783 24.2308 25.7721 24.199 25.5796 24.1247C25.3872 24.0504 25.2131 23.9353 25.0693 23.7873C24.7561 23.3684 24.6133 22.8464 24.6695 22.3265V19.2509H23.793V18.482H24.6849V17.1134L25.6844 16.875Z"
        fill="#B0D136" />
    <path
        d="M29.0557 21.4777C29.0348 21.7384 29.0708 22.0006 29.1612 22.2461C29.2516 22.4916 29.3942 22.7145 29.5792 22.8995C29.7642 23.0845 29.9871 23.2271 30.2326 23.3175C30.4781 23.4078 30.7402 23.4438 31.001 23.423C31.5284 23.4348 32.0524 23.3352 32.5388 23.1308L32.7156 23.8997C32.1188 24.1455 31.4771 24.2634 30.8318 24.2457C30.4557 24.2714 30.0784 24.2155 29.7259 24.0818C29.3734 23.948 29.054 23.7396 28.7896 23.4708C28.5252 23.2021 28.3221 22.8793 28.1942 22.5246C28.0662 22.17 28.0165 21.7918 28.0485 21.4162C28.0485 19.7246 29.0557 18.3867 30.7011 18.3867C32.5465 18.3867 33.0078 20.0014 33.0078 21.0317C33.0177 21.1905 33.0177 21.3497 33.0078 21.5084H29.0326L29.0557 21.4777ZM32.0698 20.7088C32.0994 20.5032 32.0847 20.2937 32.0265 20.0943C31.9684 19.8949 31.8682 19.7103 31.7327 19.5529C31.5971 19.3955 31.4294 19.269 31.2409 19.1819C31.0524 19.0948 30.8473 19.0491 30.6396 19.048C30.2172 19.0785 29.8214 19.2658 29.5298 19.573C29.2382 19.8802 29.0719 20.2853 29.0634 20.7088H32.0698Z"
        fill="#B0D136" />
    <path
        d="M34.5735 20.2371C34.5735 19.5758 34.5735 19.0069 34.5273 18.484H35.45V19.5835H35.4961C35.593 19.2442 35.7931 18.9434 36.0687 18.7229C36.3442 18.5025 36.6816 18.3733 37.0339 18.3533C37.1309 18.3406 37.2291 18.3406 37.3261 18.3533V19.3144C37.2086 19.3008 37.0899 19.3008 36.9724 19.3144C36.6234 19.3279 36.2912 19.468 36.0379 19.7086C35.7847 19.9491 35.6276 20.2736 35.5961 20.6215C35.5674 20.7789 35.5519 20.9383 35.55 21.0982V24.0892H34.535V20.2448L34.5735 20.2371Z"
        fill="#B0D136" />
    <path
        d="M34.1223 3.04467C34.1539 3.56122 34.031 4.07548 33.7693 4.52192C33.5075 4.96838 33.1188 5.32682 32.6527 5.55159C32.1865 5.77635 31.664 5.85726 31.1517 5.78402C30.6394 5.71078 30.1605 5.4867 29.776 5.14032C29.3915 4.79395 29.1188 4.34096 28.9927 3.83905C28.8665 3.33715 28.8927 2.80906 29.0677 2.32205C29.2427 1.83505 29.5588 1.41117 29.9756 1.10442C30.3924 0.797667 30.8911 0.621931 31.4081 0.599594C31.7471 0.580941 32.0864 0.629484 32.4066 0.742431C32.7267 0.855379 33.0214 1.0305 33.2736 1.25773C33.5259 1.48496 33.7307 1.75982 33.8764 2.06648C34.022 2.37315 34.1056 2.70559 34.1223 3.04467Z"
        fill="#B0D136" />
    <path
        d="M18.9162 33.157C11.9963 33.157 5.9143 30.6735 2.76953 27.0059C3.98971 30.3053 6.19139 33.1518 9.07821 35.1621C11.965 37.1724 15.3985 38.2501 18.9162 38.2501C22.4341 38.2501 25.8675 37.1724 28.7544 35.1621C31.6412 33.1518 33.8428 30.3053 35.0631 27.0059C31.926 30.6735 25.8671 33.157 18.9162 33.157Z"
        fill="#B0D136" />
    <path
        d="M18.9162 9.30792C25.8363 9.30792 31.9183 11.7914 35.0631 15.459C33.8428 12.1596 31.6412 9.31317 28.7544 7.30285C25.8675 5.29253 22.4341 4.21484 18.9162 4.21484C15.3985 4.21484 11.965 5.29253 9.07821 7.30285C6.19139 9.31317 3.98971 12.1596 2.76953 15.459C5.9143 11.7838 11.9655 9.30792 18.9162 9.30792Z"
        fill="#B0D136" />
    <path
        d="M3.55699 8.47169C3.18412 8.48198 2.81652 8.3818 2.50043 8.18374C2.18434 7.98568 1.93387 7.69857 1.78052 7.35854C1.62717 7.0185 1.57778 6.64071 1.63857 6.27268C1.69936 5.90465 1.86761 5.56281 2.12216 5.29015C2.37672 5.01749 2.70621 4.82618 3.06921 4.74028C3.43219 4.65439 3.81248 4.67774 4.16224 4.8074C4.512 4.93706 4.81561 5.16725 5.03489 5.469C5.25417 5.77076 5.37934 6.13062 5.39464 6.50332C5.40921 7.00728 5.22441 7.49665 4.88036 7.86517C4.5363 8.2337 4.06076 8.45165 3.55699 8.47169Z"
        fill="#B0D136" />
</svg>