<svg width="30" height="25" viewBox="0 0 30 25" fill="none" xmlns="http://www.w3.org/2000/svg">
    <path
        d="M25.2068 7.55665C23.2304 7.55665 21.5627 8.89943 21.0655 10.7203C18.8798 10.7203 17.5245 12.3568 17.5245 14.1096V21.5662C17.5245 22.1891 17.0177 22.696 16.3948 22.696H9.33713C8.71419 22.696 8.20737 22.1891 8.20737 21.5662V13.5098C9.53412 13.2813 10.7568 12.6532 11.7289 11.6817C12.9715 10.4391 13.6559 8.78717 13.6559 7.03023C13.6559 2.18231 13.6556 5.95497 13.6556 1.12975C13.6556 0.505801 13.1498 0 12.5259 0H10.2161C9.59218 0 9.08638 0.505857 9.08638 1.12975C9.08638 1.75371 9.59224 2.25951 10.2161 2.25951H11.3961V3.31399H8.76024C8.13629 3.31399 7.63049 3.81973 7.63049 4.44374V7.03012C7.63049 7.33456 7.38246 7.5822 7.07768 7.5822C6.77323 7.5822 6.5256 7.33445 6.5256 7.03012V4.44374C6.5256 3.81973 6.01974 3.31399 5.39585 3.31399H2.75956V2.25956H3.9395C4.56346 2.25956 5.06926 1.75371 5.06926 1.12981C5.06926 0.505858 4.5634 5.66095e-05 3.9395 5.66095e-05H1.62975C1.00586 -3.11163e-08 0.5 0.505801 0.5 1.12975V7.03012C0.5 10.2719 2.85733 12.9731 5.94781 13.5103V21.5661C5.94781 23.435 7.46827 24.9555 9.33713 24.9555H16.3948C18.2636 24.9555 19.7841 23.4349 19.7841 21.5661V14.1096C19.7841 13.4867 20.2909 12.9799 20.9138 12.9799H21.0656C21.5631 14.8004 23.2307 16.143 25.2068 16.143C27.574 16.143 29.5 14.2171 29.5 11.8498C29.5 9.48254 27.5741 7.55665 25.2068 7.55665Z"
        fill="white" />
</svg>