<svg width="19" height="18" viewBox="0 0 19 18" fill="none" xmlns="http://www.w3.org/2000/svg">
    <path
        d="M15.0431 17.1875V13.9062H13.3717V10.1562H18.386V13.9062H16.7146V17.1875H15.0431ZM8.35728 17.1875V13.9062H6.68583V10.1562H11.7002V13.9062H10.0287V17.1875H8.35728ZM1.67146 17.1875V13.9062H0V10.1562H5.01437V13.9062H3.34291V17.1875H1.67146ZM0 8.59375V3.90625H1.67146V0.78125C1.67146 0.559896 1.75169 0.374219 1.91215 0.224219C2.07205 0.0747395 2.2704 0 2.50718 0C2.74397 0 2.9426 0.0747395 3.10306 0.224219C3.26296 0.374219 3.34291 0.559896 3.34291 0.78125V3.90625H5.01437V8.59375H0ZM6.68583 8.59375V3.90625H8.35728V0.78125C8.35728 0.559896 8.43751 0.374219 8.59797 0.224219C8.75787 0.0747395 8.95622 0 9.19301 0C9.4298 0 9.62843 0.0747395 9.78889 0.224219C9.94879 0.374219 10.0287 0.559896 10.0287 0.78125V3.90625H11.7002V8.59375H6.68583ZM13.3717 8.59375V3.90625H15.0431V0.78125C15.0431 0.559896 15.1233 0.374219 15.2838 0.224219C15.4437 0.0747395 15.642 0 15.8788 0C16.1156 0 16.314 0.0747395 16.4739 0.224219C16.6343 0.374219 16.7146 0.559896 16.7146 0.78125V3.90625H18.386V8.59375H13.3717Z"
        fill="#ffffff" />
</svg>