<svg width="26" height="26" viewBox="0 0 26 26" fill="none" xmlns="http://www.w3.org/2000/svg">
    <path
        d="M25.0208 16.8214C26.3841 17.6748 26.3214 19.6525 24.8327 20.4017L14.3625 25.6775C13.9424 25.8893 13.4744 26 12.9992 26C12.524 26 12.056 25.8893 11.6359 25.6775L1.16571 20.4017C-0.321499 19.6511 -0.385653 17.6748 0.977619 16.8214L1.06948 16.877L11.6359 22.2029C12.056 22.4147 12.524 22.5254 12.9992 22.5254C13.4744 22.5254 13.9424 22.4147 14.3625 22.2029L24.8327 16.927C24.8976 16.8947 24.9594 16.8594 25.0208 16.8214ZM25.0208 11.262C25.3218 11.4521 25.5688 11.7103 25.7397 12.0136C25.9106 12.3169 26 12.6558 26 13C26 13.3442 25.9106 13.6831 25.7397 13.9864C25.5688 14.2897 25.3218 14.5479 25.0208 14.738L24.8327 14.8422L14.3625 20.1181C13.9817 20.3101 13.561 20.4193 13.1306 20.4378C12.7003 20.4563 12.271 20.3837 11.8736 20.2251L11.6374 20.1181L1.16571 14.8422C-0.321499 14.0917 -0.385653 12.1154 0.977619 11.262L1.06948 11.3176L11.6359 16.6435C12.0169 16.8357 12.4379 16.945 12.8685 16.9635C13.2991 16.982 13.7287 16.9092 14.1263 16.7505L14.3625 16.6435L24.8327 11.3676C24.8976 11.3353 24.9594 11.3 25.0208 11.262ZM14.3625 0.321075L24.8327 5.59695C26.387 6.37944 26.387 8.50174 24.8327 9.28284L14.3625 14.5587C13.9424 14.7705 13.4744 14.8812 12.9992 14.8812C12.524 14.8812 12.056 14.7705 11.6359 14.5587L1.16571 9.28423C-0.388569 8.50174 -0.388569 6.38083 1.16571 5.59834L11.6359 0.322465C12.056 0.110699 12.524 0 12.9992 0C13.4744 0 13.9424 0.10931 14.3625 0.321075Z"
        fill="#B0D136" />
</svg>