<svg width="636" height="627" viewBox="0 0 636 627" fill="none" xmlns="http://www.w3.org/2000/svg">
    <g clip-path="url(#clip0_1519_24155)">
        <path
            d="M463.099 393.33C546.478 253.708 548.65 101.284 467.95 52.8798C387.251 4.47605 254.239 78.4227 170.861 218.044C87.4823 357.666 85.3105 510.091 166.01 558.494C246.709 606.898 379.721 532.951 463.099 393.33Z"
            stroke="url(#paint0_linear_1519_24155)" stroke-miterlimit="10" />
        <path
            d="M467.952 558.534C548.652 510.13 546.48 357.706 463.101 218.084C379.723 78.4625 246.711 4.5159 166.012 52.9197C85.3124 101.323 87.4842 253.748 170.863 393.37C254.241 532.991 387.253 606.938 467.952 558.534Z"
            stroke="url(#paint1_linear_1519_24155)" stroke-miterlimit="10" />
        <path
            d="M145.828 137.612C17.8536 173.751 -9.29402 278.372 85.1912 371.175C179.779 464.082 360.146 509.96 488.137 473.804C616.111 437.648 643.362 333.13 548.757 240.223C454.254 147.403 273.802 101.439 145.811 137.595L145.828 137.612Z"
            stroke="url(#paint2_linear_1519_24155)" stroke-miterlimit="10" />
        <g filter="url(#filter0_d_1519_24155)">
            <path
                d="M314.746 435.968C355.769 435.968 389.024 358.398 389.024 262.71C389.024 167.023 355.769 89.4531 314.746 89.4531C273.723 89.4531 240.467 167.023 240.467 262.71C240.467 358.398 273.723 435.968 314.746 435.968Z"
                fill="#F9BB9B" />
        </g>
        <path
            d="M290.856 504.094H310.137C312.605 504.094 314.611 505.691 314.611 507.684V528.828C314.611 533.534 307.652 536.076 303.282 532.916C296.889 528.312 289.571 520.617 286.486 508.405C285.921 506.189 288.046 504.111 290.874 504.111L290.856 504.094Z"
            fill="url(#paint3_radial_1519_24155)" />
        <path
            d="M314.009 494.425V477.404C314.009 470.258 306.742 465.088 298.772 466.566L288.009 468.575C280.04 470.052 275.207 477.49 277.897 484.137L284.307 499.973C290.014 514.092 314.009 509.626 314.026 494.443L314.009 494.425Z"
            fill="url(#paint4_radial_1519_24155)" />
        <path
            d="M312.707 458.438V434.116C312.724 423.913 302.321 416.51 290.924 418.64L275.551 421.509C264.153 423.639 257.247 434.236 261.103 443.735L270.255 466.356C278.413 486.521 312.69 480.149 312.707 458.455V458.438Z"
            fill="url(#paint5_radial_1519_24155)" />
        <path
            d="M268.85 462.869L270.255 466.339C278.413 486.504 312.69 480.131 312.707 458.437V456.016C301.55 467.592 284.669 469.825 268.85 462.886V462.869Z"
            fill="#212B46" />
        <g filter="url(#filter1_d_1519_24155)">
            <path
                d="M272.893 479.632C271.968 474.72 274.196 470.202 277.863 469.532C281.531 468.88 285.25 472.332 286.158 477.244C287.084 482.157 284.856 486.674 281.188 487.344C277.52 487.997 273.801 484.544 272.893 479.632Z"
                fill="#0B93C0" />
        </g>
        <path
            d="M340.744 504.094H321.463C318.995 504.094 316.99 505.691 316.99 507.684V528.828C316.99 533.534 323.949 536.076 328.319 532.916C334.712 528.312 342.03 520.617 345.115 508.405C345.68 506.189 343.555 504.111 340.727 504.111L340.744 504.094Z"
            fill="url(#paint6_radial_1519_24155)" />
        <path
            d="M317.591 494.425V477.404C317.591 470.258 324.858 465.088 332.828 466.566L343.591 468.575C351.56 470.052 356.393 477.49 353.702 484.137L347.293 499.973C341.585 514.092 317.591 509.626 317.574 494.443L317.591 494.425Z"
            fill="url(#paint7_radial_1519_24155)" />
        <path
            d="M318.895 458.438V434.116C318.877 423.913 329.281 416.51 340.678 418.64L356.051 421.509C367.448 423.639 374.355 434.236 370.499 443.735L361.347 466.356C353.189 486.521 318.912 480.149 318.895 458.455V458.438Z"
            fill="url(#paint8_radial_1519_24155)" />
        <path
            d="M362.735 462.869L361.329 466.339C353.171 486.504 318.894 480.131 318.877 458.437V456.016C330.034 467.592 346.916 469.825 362.735 462.886V462.869Z"
            fill="#212B46" />
        <g filter="url(#filter2_d_1519_24155)">
            <path
                d="M358.707 479.632C359.633 474.72 357.405 470.202 353.737 469.532C350.069 468.88 346.35 472.332 345.442 477.244C344.516 482.157 346.744 486.674 350.412 487.344C354.08 487.997 357.799 484.544 358.707 479.632Z"
                fill="#0B93C0" />
        </g>
        <path
            d="M128.74 278.793L153.351 271.682C163.686 268.693 174.209 275.752 175.391 286.47L177.002 300.916C178.185 311.616 169.479 320.823 158.75 320.205L133.179 318.693C110.385 317.353 106.803 285.148 128.74 278.81V278.793Z"
            fill="url(#paint9_radial_1519_24155)" />
        <path
            d="M182.041 264.039L217.209 253.887C231.966 249.628 246.996 259.71 248.71 274.997L251.007 295.626C252.703 310.93 240.261 324.07 224.922 323.177L188.399 321.03C155.819 319.106 150.711 273.108 182.058 264.039H182.041Z"
            fill="url(#paint10_radial_1519_24155)" />
        <path
            d="M182.041 264.039L217.209 253.887C231.966 249.628 246.996 259.71 248.71 274.997L251.007 295.626C252.703 310.93 240.261 324.07 224.922 323.177L188.399 321.03C155.819 319.106 150.711 273.108 182.058 264.039H182.041Z"
            fill="url(#paint11_radial_1519_24155)" />
        <path
            d="M502.55 278.793L477.939 271.682C467.604 268.693 457.081 275.752 455.899 286.47L454.287 300.916C453.105 311.616 461.811 320.823 472.54 320.205L498.111 318.693C520.905 317.353 524.487 285.148 502.55 278.81V278.793Z"
            fill="url(#paint12_radial_1519_24155)" />
        <path
            d="M449.248 264.039L414.097 253.887C399.341 249.628 384.31 259.71 382.596 274.997L380.3 295.626C378.603 310.93 391.046 324.07 406.385 323.177L442.907 321.03C475.488 319.106 480.595 273.108 449.248 264.039Z"
            fill="url(#paint13_radial_1519_24155)" />
        <path
            d="M242.729 384.783L227.064 293.096C220.483 254.604 250.064 219.461 289.02 219.461H341.55C380.506 219.461 410.087 254.621 403.506 293.096L387.842 384.783C373.874 466.542 256.714 466.542 242.729 384.783Z"
            fill="url(#paint14_radial_1519_24155)" />
        <path style="mix-blend-mode:multiply"
            d="M341.551 219.462H316.031V343.424C338.689 343.716 356.958 362.266 356.958 385.128C356.958 407.989 338.689 424.152 316.031 424.444V446.069C348.56 445.76 380.901 425.337 387.842 384.767L403.507 293.08C410.088 254.588 380.507 219.445 341.551 219.445V219.462Z"
            fill="url(#paint15_linear_1519_24155)" />
        <g filter="url(#filter3_d_1519_24155)">
            <path
                d="M315.483 421.885C334.745 421.885 350.36 406.175 350.36 386.794C350.36 367.414 334.745 351.703 315.483 351.703C296.22 351.703 280.605 367.414 280.605 386.794C280.605 406.175 296.22 421.885 315.483 421.885Z"
                fill="#161D2F" />
        </g>
        <g filter="url(#filter4_d_1519_24155)">
            <path
                d="M315.482 410.706C328.147 410.706 338.414 400.378 338.414 387.638C338.414 374.898 328.147 364.57 315.482 364.57C302.818 364.57 292.551 374.898 292.551 387.638C292.551 400.378 302.818 410.706 315.482 410.706Z"
                fill="#212B46" />
        </g>
        <g filter="url(#filter5_d_1519_24155)">
            <path
                d="M315.482 343.421C338.379 343.421 356.94 362.109 356.94 385.142C356.94 408.175 338.379 426.863 315.482 426.863C292.585 426.863 274.024 408.175 274.024 385.142C274.024 362.109 292.585 343.421 315.482 343.421ZM315.482 336.859C289.02 336.859 267.477 358.519 267.477 385.142C267.477 411.765 289.02 433.424 315.482 433.424C341.944 433.424 363.487 411.765 363.487 385.142C363.487 358.519 341.944 336.859 315.482 336.859Z"
                fill="url(#paint16_radial_1519_24155)" />
        </g>
        <path
            d="M188.279 321.006C188.279 321.006 188.348 321.006 188.382 321.006L213.97 322.518C191.553 309.584 185.486 275.163 207.543 256.664L186.154 262.848C169.615 279.543 172.649 306.389 188.279 321.006Z"
            fill="#212B46" />
        <path
            d="M440.988 321.006C440.988 321.006 440.919 321.006 440.885 321.006L415.297 322.518C437.714 309.584 443.781 275.163 421.724 256.664L443.113 262.848C459.652 279.543 456.618 306.389 440.988 321.006Z"
            fill="#212B46" />
        <g filter="url(#filter6_d_1519_24155)">
            <path
                d="M158.699 263.127C167.953 261.341 176.523 265.36 177.825 272.128C179.128 278.895 172.684 285.834 163.429 287.621C154.174 289.407 145.605 285.388 144.302 278.62C143 271.853 149.444 264.914 158.699 263.127Z"
                fill="#0B93C0" />
        </g>
        <g filter="url(#filter7_d_1519_24155)">
            <path
                d="M472.61 263.127C463.356 261.341 454.786 265.36 453.484 272.128C452.181 278.895 458.625 285.834 467.88 287.621C477.135 289.407 485.704 285.388 487.007 278.62C488.309 271.853 481.865 264.914 472.61 263.127Z"
                fill="#0B93C0" />
        </g>
        <path
            d="M315.997 278.236C376.718 278.236 425.941 232.319 425.941 175.677C425.941 119.035 376.718 73.1172 315.997 73.1172C255.276 73.1172 206.053 119.035 206.053 175.677C206.053 232.319 255.276 278.236 315.997 278.236Z"
            fill="url(#paint17_radial_1519_24155)" />
        <path style="mix-blend-mode:multiply"
            d="M317.008 139.177C343.757 139.177 365.442 124.389 365.442 106.147C365.442 87.9052 343.757 73.1172 317.008 73.1172C290.259 73.1172 268.574 87.9052 268.574 106.147C268.574 124.389 290.259 139.177 317.008 139.177Z"
            fill="url(#paint18_radial_1519_24155)" />
        <path d="M425.943 192.992C404.776 283.563 227.289 283.563 206.105 192.992H425.943Z"
            fill="url(#paint19_radial_1519_24155)" />
        <path
            d="M425.289 164.633C401.038 191.565 361.156 209.171 315.979 209.171C270.801 209.171 230.92 191.565 206.669 164.633C206.343 167.501 206.154 170.421 206.086 173.376C206.206 178.425 206.48 185.21 206.874 188.267C231.16 215.028 270.973 232.479 315.962 232.479C360.951 232.479 400.764 215.028 425.049 188.267C425.443 185.21 425.717 178.443 425.837 173.376C425.769 170.438 425.58 167.518 425.255 164.633H425.289Z"
            fill="url(#paint20_radial_1519_24155)" />
        <path
            d="M425.289 164.633C401.038 191.565 361.156 209.171 315.979 209.171C270.801 209.171 230.92 191.565 206.669 164.633C206.343 167.501 206.154 170.421 206.086 173.376C206.206 178.425 206.48 185.21 206.874 188.267C231.16 215.028 270.973 232.479 315.962 232.479C360.951 232.479 400.764 215.028 425.049 188.267C425.443 185.21 425.717 178.443 425.837 173.376C425.769 170.438 425.58 167.518 425.255 164.633H425.289Z"
            fill="#212B46" />
        <g filter="url(#filter8_d_1519_24155)">
            <path
                d="M256.783 212.863C256.783 209.222 259.731 206.25 263.382 206.25C267.032 206.25 269.98 209.204 269.98 212.863C269.98 216.521 267.032 219.476 263.382 219.476C259.731 219.476 256.783 216.521 256.783 212.863Z"
                fill="#EE691E" />
        </g>
        <g filter="url(#filter9_d_1519_24155)">
            <path
                d="M364.035 212.863C364.035 209.222 366.983 206.25 370.634 206.25C374.284 206.25 377.232 209.204 377.232 212.863C377.232 216.521 374.284 219.476 370.634 219.476C366.983 219.476 364.035 216.521 364.035 212.863Z"
                fill="#EE691E" />
        </g>
        <path
            d="M308.714 208.997C313.375 209.169 318.037 209.186 322.699 209.014C362.135 207.485 397.029 192.525 420.252 169.852C421.829 168.289 424.331 165.713 425.291 164.613C424.434 156.798 422.428 148.966 419.909 142.164H212.069C209.567 148.932 207.562 156.506 206.688 164.613C208.573 166.812 210.321 168.461 212.069 170.179C235.172 192.559 269.706 207.331 308.697 208.98L308.714 208.997Z"
            fill="url(#paint21_radial_1519_24155)" />
        <path d="M425.889 175.25C425.889 231.897 376.666 277.81 315.944 277.81C255.222 277.81 206 231.897 206 175.25"
            fill="url(#paint22_linear_1519_24155)" />
        <path
            d="M500.315 550.562C496.949 550.562 493.982 549.942 491.423 548.686C488.865 547.43 486.866 545.612 485.426 543.216C483.998 540.821 483.277 537.877 483.277 534.37C483.277 530.863 483.998 527.905 485.426 525.466C486.854 523.027 488.853 521.18 491.423 519.939C493.982 518.683 496.949 518.062 500.315 518.062C503.68 518.062 506.635 518.683 509.156 519.939C511.689 521.194 513.664 523.027 515.092 525.466C516.52 527.905 517.24 530.863 517.24 534.37C517.24 537.877 516.52 540.821 515.092 543.216C513.664 545.612 511.677 547.43 509.156 548.686C506.623 549.942 503.68 550.562 500.315 550.562Z"
            fill="#0B93C0" />
        <path
            d="M509.29 117.568C505.46 117.568 502.083 116.862 499.172 115.433C496.261 114.005 493.986 111.935 492.347 109.209C490.722 106.483 489.902 103.133 489.902 99.1427C489.902 95.1522 490.722 91.7857 492.347 89.0104C493.972 86.2351 496.247 84.1331 499.172 82.7208C502.083 81.2921 505.46 80.5859 509.29 80.5859C513.119 80.5859 516.482 81.2921 519.351 82.7208C522.233 84.1495 524.48 86.2351 526.105 89.0104C527.73 91.7857 528.55 95.1522 528.55 99.1427C528.55 103.133 527.73 106.483 526.105 109.209C524.48 111.935 522.219 114.005 519.351 115.433C516.468 116.862 513.119 117.568 509.29 117.568Z"
            fill="#B0D136" />
        <path
            d="M131.935 108.553C126.143 108.553 121.035 107.485 116.632 105.324C112.229 103.163 108.788 100.034 106.309 95.9104C103.851 91.7872 102.611 86.7202 102.611 80.6845C102.611 74.6488 103.851 69.5569 106.309 65.3593C108.767 61.1616 112.208 57.9823 116.632 55.8462C121.035 53.6852 126.143 52.6172 131.935 52.6172C137.727 52.6172 142.813 53.6852 147.152 55.8462C151.512 58.0071 154.91 61.1616 157.368 65.3593C159.826 69.5569 161.066 74.6488 161.066 80.6845C161.066 86.7202 159.826 91.7872 157.368 95.9104C154.91 100.034 151.491 103.163 147.152 105.324C142.792 107.485 137.727 108.553 131.935 108.553Z"
            fill="#0B93C0" />
        <path
            d="M589.416 287.684C588.255 287.684 587.232 287.898 586.35 288.331C585.468 288.764 584.779 289.391 584.282 290.217C583.789 291.043 583.541 292.058 583.541 293.267C583.541 294.477 583.789 295.497 584.282 296.338C584.774 297.179 585.464 297.816 586.35 298.244C587.232 298.677 588.255 298.891 589.416 298.891C590.576 298.891 591.595 298.677 592.465 298.244C593.338 297.811 594.019 297.179 594.511 296.338C595.004 295.497 595.252 294.477 595.252 293.267C595.252 292.058 595.004 291.043 594.511 290.217C594.019 289.391 593.334 288.764 592.465 288.331C591.591 287.898 590.576 287.684 589.416 287.684Z"
            fill="#B0D136" />
        <path
            d="M67.8674 374.066C60.1625 374.066 53.3674 372.646 47.5105 369.771C41.6536 366.896 37.0761 362.733 33.778 357.248C30.5084 351.763 28.8594 345.023 28.8594 336.993C28.8594 328.964 30.5084 322.191 33.778 316.607C37.0477 311.023 41.6251 306.793 47.5105 303.952C53.3674 301.077 60.1625 299.656 67.8674 299.656C75.5724 299.656 82.3392 301.077 88.1108 303.952C93.9108 306.826 98.4314 311.023 101.701 316.607C104.971 322.191 106.62 328.964 106.62 336.993C106.62 345.023 104.971 351.763 101.701 357.248C98.4314 362.733 93.8824 366.896 88.1108 369.771C82.3108 372.646 75.5724 374.066 67.8674 374.066Z"
            fill="#B0D136" />
    </g>
    <defs>
        <filter id="filter0_d_1519_24155" x="182.467" y="31.4531" width="264.557" height="462.514"
            filterUnits="userSpaceOnUse" color-interpolation-filters="sRGB">
            <feFlood flood-opacity="0" result="BackgroundImageFix" />
            <feColorMatrix in="SourceAlpha" type="matrix" values="0 0 0 0 0 0 0 0 0 0 0 0 0 0 0 0 0 0 127 0"
                result="hardAlpha" />
            <feOffset />
            <feGaussianBlur stdDeviation="29" />
            <feColorMatrix type="matrix" values="0 0 0 0 0.6 0 0 0 0 0.694118 0 0 0 0 1 0 0 0 0.9 0" />
            <feBlend mode="normal" in2="BackgroundImageFix" result="effect1_dropShadow_1519_24155" />
            <feBlend mode="normal" in="SourceGraphic" in2="effect1_dropShadow_1519_24155" result="shape" />
        </filter>
        <filter id="filter1_d_1519_24155" x="266.684" y="465.453" width="25.6836" height="29.9707"
            filterUnits="userSpaceOnUse" color-interpolation-filters="sRGB">
            <feFlood flood-opacity="0" result="BackgroundImageFix" />
            <feColorMatrix in="SourceAlpha" type="matrix" values="0 0 0 0 0 0 0 0 0 0 0 0 0 0 0 0 0 0 127 0"
                result="hardAlpha" />
            <feOffset dy="2" />
            <feGaussianBlur stdDeviation="3" />
            <feColorMatrix type="matrix" values="0 0 0 0 0 0 0 0 0 0 0 0 0 0 0 0 0 0 0.43 0" />
            <feBlend mode="normal" in2="BackgroundImageFix" result="effect1_dropShadow_1519_24155" />
            <feBlend mode="normal" in="SourceGraphic" in2="effect1_dropShadow_1519_24155" result="shape" />
        </filter>
        <filter id="filter2_d_1519_24155" x="339.232" y="465.453" width="25.6836" height="29.9707"
            filterUnits="userSpaceOnUse" color-interpolation-filters="sRGB">
            <feFlood flood-opacity="0" result="BackgroundImageFix" />
            <feColorMatrix in="SourceAlpha" type="matrix" values="0 0 0 0 0 0 0 0 0 0 0 0 0 0 0 0 0 0 127 0"
                result="hardAlpha" />
            <feOffset dy="2" />
            <feGaussianBlur stdDeviation="3" />
            <feColorMatrix type="matrix" values="0 0 0 0 0 0 0 0 0 0 0 0 0 0 0 0 0 0 0.43 0" />
            <feBlend mode="normal" in2="BackgroundImageFix" result="effect1_dropShadow_1519_24155" />
            <feBlend mode="normal" in="SourceGraphic" in2="effect1_dropShadow_1519_24155" result="shape" />
        </filter>
        <filter id="filter3_d_1519_24155" x="274.605" y="345.703" width="81.7539" height="82.1816"
            filterUnits="userSpaceOnUse" color-interpolation-filters="sRGB">
            <feFlood flood-opacity="0" result="BackgroundImageFix" />
            <feColorMatrix in="SourceAlpha" type="matrix" values="0 0 0 0 0 0 0 0 0 0 0 0 0 0 0 0 0 0 127 0"
                result="hardAlpha" />
            <feOffset />
            <feGaussianBlur stdDeviation="3" />
            <feColorMatrix type="matrix" values="0 0 0 0 0.52549 0 0 0 0 0.619608 0 0 0 0 0.917647 0 0 0 0.75 0" />
            <feBlend mode="normal" in2="BackgroundImageFix" result="effect1_dropShadow_1519_24155" />
            <feBlend mode="normal" in="SourceGraphic" in2="effect1_dropShadow_1519_24155" result="shape" />
        </filter>
        <filter id="filter4_d_1519_24155" x="284.551" y="356.57" width="61.8633" height="62.1348"
            filterUnits="userSpaceOnUse" color-interpolation-filters="sRGB">
            <feFlood flood-opacity="0" result="BackgroundImageFix" />
            <feColorMatrix in="SourceAlpha" type="matrix" values="0 0 0 0 0 0 0 0 0 0 0 0 0 0 0 0 0 0 127 0"
                result="hardAlpha" />
            <feOffset />
            <feGaussianBlur stdDeviation="4" />
            <feColorMatrix type="matrix" values="0 0 0 0 0.52549 0 0 0 0 0.619608 0 0 0 0 0.917647 0 0 0 0.9 0" />
            <feBlend mode="normal" in2="BackgroundImageFix" result="effect1_dropShadow_1519_24155" />
            <feBlend mode="normal" in="SourceGraphic" in2="effect1_dropShadow_1519_24155" result="shape" />
        </filter>
        <filter id="filter5_d_1519_24155" x="261.477" y="330.859" width="108.01" height="108.564"
            filterUnits="userSpaceOnUse" color-interpolation-filters="sRGB">
            <feFlood flood-opacity="0" result="BackgroundImageFix" />
            <feColorMatrix in="SourceAlpha" type="matrix" values="0 0 0 0 0 0 0 0 0 0 0 0 0 0 0 0 0 0 127 0"
                result="hardAlpha" />
            <feOffset />
            <feGaussianBlur stdDeviation="3" />
            <feColorMatrix type="matrix" values="0 0 0 0 0.52549 0 0 0 0 0.619608 0 0 0 0 0.917647 0 0 0 0.75 0" />
            <feBlend mode="normal" in2="BackgroundImageFix" result="effect1_dropShadow_1519_24155" />
            <feBlend mode="normal" in="SourceGraphic" in2="effect1_dropShadow_1519_24155" result="shape" />
        </filter>
        <filter id="filter6_d_1519_24155" x="138.135" y="259.703" width="45.8574" height="37.3418"
            filterUnits="userSpaceOnUse" color-interpolation-filters="sRGB">
            <feFlood flood-opacity="0" result="BackgroundImageFix" />
            <feColorMatrix in="SourceAlpha" type="matrix" values="0 0 0 0 0 0 0 0 0 0 0 0 0 0 0 0 0 0 127 0"
                result="hardAlpha" />
            <feOffset dy="3" />
            <feGaussianBlur stdDeviation="3" />
            <feColorMatrix type="matrix" values="0 0 0 0 0 0 0 0 0 0 0 0 0 0 0 0 0 0 0.55 0" />
            <feBlend mode="normal" in2="BackgroundImageFix" result="effect1_dropShadow_1519_24155" />
            <feBlend mode="normal" in="SourceGraphic" in2="effect1_dropShadow_1519_24155" result="shape" />
        </filter>
        <filter id="filter7_d_1519_24155" x="447.316" y="259.703" width="45.8574" height="37.3418"
            filterUnits="userSpaceOnUse" color-interpolation-filters="sRGB">
            <feFlood flood-opacity="0" result="BackgroundImageFix" />
            <feColorMatrix in="SourceAlpha" type="matrix" values="0 0 0 0 0 0 0 0 0 0 0 0 0 0 0 0 0 0 127 0"
                result="hardAlpha" />
            <feOffset dy="3" />
            <feGaussianBlur stdDeviation="3" />
            <feColorMatrix type="matrix" values="0 0 0 0 0 0 0 0 0 0 0 0 0 0 0 0 0 0 0.55 0" />
            <feBlend mode="normal" in2="BackgroundImageFix" result="effect1_dropShadow_1519_24155" />
            <feBlend mode="normal" in="SourceGraphic" in2="effect1_dropShadow_1519_24155" result="shape" />
        </filter>
        <filter id="filter8_d_1519_24155" x="252.783" y="202.25" width="21.1973" height="21.2266"
            filterUnits="userSpaceOnUse" color-interpolation-filters="sRGB">
            <feFlood flood-opacity="0" result="BackgroundImageFix" />
            <feColorMatrix in="SourceAlpha" type="matrix" values="0 0 0 0 0 0 0 0 0 0 0 0 0 0 0 0 0 0 127 0"
                result="hardAlpha" />
            <feOffset />
            <feGaussianBlur stdDeviation="2" />
            <feColorMatrix type="matrix" values="0 0 0 0 0.52549 0 0 0 0 0.619608 0 0 0 0 0.917647 0 0 0 0.92 0" />
            <feBlend mode="normal" in2="BackgroundImageFix" result="effect1_dropShadow_1519_24155" />
            <feBlend mode="normal" in="SourceGraphic" in2="effect1_dropShadow_1519_24155" result="shape" />
        </filter>
        <filter id="filter9_d_1519_24155" x="360.035" y="202.25" width="21.1973" height="21.2266"
            filterUnits="userSpaceOnUse" color-interpolation-filters="sRGB">
            <feFlood flood-opacity="0" result="BackgroundImageFix" />
            <feColorMatrix in="SourceAlpha" type="matrix" values="0 0 0 0 0 0 0 0 0 0 0 0 0 0 0 0 0 0 127 0"
                result="hardAlpha" />
            <feOffset />
            <feGaussianBlur stdDeviation="2" />
            <feColorMatrix type="matrix" values="0 0 0 0 0.52549 0 0 0 0 0.619608 0 0 0 0 0.917647 0 0 0 0.92 0" />
            <feBlend mode="normal" in2="BackgroundImageFix" result="effect1_dropShadow_1519_24155" />
            <feBlend mode="normal" in="SourceGraphic" in2="effect1_dropShadow_1519_24155" result="shape" />
        </filter>
        <linearGradient id="paint0_linear_1519_24155" x1="106.007" y1="305.711" x2="527.926" y2="305.711"
            gradientUnits="userSpaceOnUse">
            <stop offset="0.22" stop-color="#FFEEE6" stop-opacity="0.19" />
            <stop offset="0.24" stop-color="#FEEBE2" stop-opacity="0.23" />
            <stop offset="0.45" stop-color="#FCDAC9" stop-opacity="0.5" />
            <stop offset="0.63" stop-color="#FBCCB5" stop-opacity="0.72" />
            <stop offset="0.79" stop-color="#F9C3A6" stop-opacity="0.87" />
            <stop offset="0.92" stop-color="#F9BD9E" stop-opacity="0.97" />
            <stop offset="1" stop-color="#F9BB9B" />
        </linearGradient>
        <linearGradient id="paint1_linear_1519_24155" x1="106.045" y1="-59.999" x2="527.964" y2="-59.999"
            gradientUnits="userSpaceOnUse">
            <stop offset="0.22" stop-color="#FFEEE6" stop-opacity="0.19" />
            <stop offset="0.24" stop-color="#FEEBE2" stop-opacity="0.23" />
            <stop offset="0.45" stop-color="#FCDAC9" stop-opacity="0.5" />
            <stop offset="0.63" stop-color="#FBCCB5" stop-opacity="0.72" />
            <stop offset="0.79" stop-color="#F9C3A6" stop-opacity="0.87" />
            <stop offset="0.92" stop-color="#F9BD9E" stop-opacity="0.97" />
            <stop offset="1" stop-color="#F9BB9B" />
        </linearGradient>
        <linearGradient id="paint2_linear_1519_24155" x1="27.9996" y1="305.716" x2="606" y2="305.716"
            gradientUnits="userSpaceOnUse">
            <stop stop-color="#F9BB9B" />
            <stop offset="0.08" stop-color="#F9BD9E" stop-opacity="0.97" />
            <stop offset="0.21" stop-color="#F9C3A6" stop-opacity="0.87" />
            <stop offset="0.37" stop-color="#FBCCB5" stop-opacity="0.72" />
            <stop offset="0.55" stop-color="#FCDAC9" stop-opacity="0.5" />
            <stop offset="0.76" stop-color="#FEEBE2" stop-opacity="0.23" />
            <stop offset="0.78" stop-color="#FFEEE6" stop-opacity="0.19" />
        </linearGradient>
        <radialGradient id="paint3_radial_1519_24155" cx="0" cy="0" r="1" gradientUnits="userSpaceOnUse"
            gradientTransform="translate(293.256 509.687) rotate(-3.00658) scale(20.5665 11.1302)">
            <stop offset="0.09" stop-color="#8769B2" />
            <stop offset="0.35" stop-color="#DADDE5" />
            <stop offset="0.44" stop-color="#D5D9E2" />
            <stop offset="0.55" stop-color="#C8CDDC" />
            <stop offset="0.66" stop-color="#B4BBD3" />
            <stop offset="0.89" stop-color="#BEC4D6" />
            <stop offset="1" stop-color="#C5CAD8" />
        </radialGradient>
        <radialGradient id="paint4_radial_1519_24155" cx="0" cy="0" r="1" gradientUnits="userSpaceOnUse"
            gradientTransform="translate(295.032 471.643) rotate(169.447) scale(23.8606 16.7039)">
            <stop offset="0.39" stop-color="#8769B2" />
            <stop offset="0.43" stop-color="#8A6FB4" />
            <stop offset="0.5" stop-color="#9482BC" />
            <stop offset="0.57" stop-color="#A5A0C8" />
            <stop offset="0.62" stop-color="#B4BBD3" />
            <stop offset="0.75" stop-color="#DADFEF" />
            <stop offset="0.94" stop-color="#DADDE5" />
        </radialGradient>
        <radialGradient id="paint5_radial_1519_24155" cx="0" cy="0" r="1" gradientUnits="userSpaceOnUse"
            gradientTransform="translate(290.365 425.876) rotate(169.447) scale(34.083 23.8602)">
            <stop offset="0.45" stop-color="#8769B2" />
            <stop offset="0.61" stop-color="#B4BBD3" />
            <stop offset="0.72" stop-color="#B5B9C6" />
            <stop offset="0.85" stop-color="#C8CBD6" />
            <stop offset="0.94" stop-color="#DADDE5" />
        </radialGradient>
        <radialGradient id="paint6_radial_1519_24155" cx="0" cy="0" r="1" gradientUnits="userSpaceOnUse"
            gradientTransform="translate(354.587 199.157) rotate(-176.993) scale(20.5665 11.1302)">
            <stop offset="0.09" stop-color="#8769B2" />
            <stop offset="0.35" stop-color="#DADDE5" />
            <stop offset="0.44" stop-color="#D5D9E2" />
            <stop offset="0.55" stop-color="#C8CDDC" />
            <stop offset="0.66" stop-color="#B4BBD3" />
            <stop offset="0.89" stop-color="#BEC4D6" />
            <stop offset="1" stop-color="#C5CAD8" />
        </radialGradient>
        <radialGradient id="paint7_radial_1519_24155" cx="0" cy="0" r="1" gradientUnits="userSpaceOnUse"
            gradientTransform="translate(336.441 471.632) rotate(10.5526) scale(23.8606 16.7039)">
            <stop offset="0.39" stop-color="#8769B2" />
            <stop offset="0.43" stop-color="#8A6FB4" />
            <stop offset="0.5" stop-color="#9482BC" />
            <stop offset="0.57" stop-color="#A5A0C8" />
            <stop offset="0.62" stop-color="#B4BBD3" />
            <stop offset="0.75" stop-color="#DADFEF" />
            <stop offset="0.94" stop-color="#DADDE5" />
        </radialGradient>
        <radialGradient id="paint8_radial_1519_24155" cx="0" cy="0" r="1" gradientUnits="userSpaceOnUse"
            gradientTransform="translate(341.094 425.848) rotate(10.5526) scale(34.083 23.8602)">
            <stop offset="0.45" stop-color="#8769B2" />
            <stop offset="0.61" stop-color="#B4BBD3" />
            <stop offset="0.72" stop-color="#B5B9C6" />
            <stop offset="0.85" stop-color="#C8CBD6" />
            <stop offset="0.94" stop-color="#DADDE5" />
        </radialGradient>
        <radialGradient id="paint9_radial_1519_24155" cx="0" cy="0" r="1" gradientUnits="userSpaceOnUse"
            gradientTransform="translate(172.219 294.541) rotate(83.6538) scale(31.7581 25.3521)">
            <stop offset="0.58" stop-color="#8769B2" />
            <stop offset="0.61" stop-color="#B4BBD3" />
            <stop offset="0.75" stop-color="#C5CAD8" />
            <stop offset="0.93" stop-color="#D8DBE3" />
            <stop offset="0.94" stop-color="#DADDE5" />
        </radialGradient>
        <radialGradient id="paint10_radial_1519_24155" cx="0" cy="0" r="1" gradientUnits="userSpaceOnUse"
            gradientTransform="translate(244.65 286.505) rotate(83.6538) scale(45.3614 36.2114)">
            <stop offset="0.58" stop-color="#8769B2" />
            <stop offset="0.61" stop-color="#B4BBD3" />
            <stop offset="0.75" stop-color="#C5CAD8" />
            <stop offset="0.93" stop-color="#D8DBE3" />
            <stop offset="0.94" stop-color="#DADDE5" />
        </radialGradient>
        <radialGradient id="paint11_radial_1519_24155" cx="0" cy="0" r="1" gradientUnits="userSpaceOnUse"
            gradientTransform="translate(244.65 286.505) rotate(83.6538) scale(45.3614 36.2114)">
            <stop offset="0.58" stop-color="#8769B2" />
            <stop offset="0.61" stop-color="#B4BBD3" />
            <stop offset="0.75" stop-color="#C5CAD8" />
            <stop offset="0.93" stop-color="#D8DBE3" />
            <stop offset="0.94" stop-color="#DADDE5" />
        </radialGradient>
        <radialGradient id="paint12_radial_1519_24155" cx="0" cy="0" r="1" gradientUnits="userSpaceOnUse"
            gradientTransform="translate(458.312 294.463) rotate(96.3462) scale(31.7581 25.3521)">
            <stop offset="0.58" stop-color="#8769B2" />
            <stop offset="0.61" stop-color="#B4BBD3" />
            <stop offset="0.75" stop-color="#C5CAD8" />
            <stop offset="0.93" stop-color="#D8DBE3" />
            <stop offset="0.94" stop-color="#DADDE5" />
        </radialGradient>
        <radialGradient id="paint13_radial_1519_24155" cx="0" cy="0" r="1" gradientUnits="userSpaceOnUse"
            gradientTransform="translate(385.88 286.428) rotate(96.3462) scale(45.3614 36.2114)">
            <stop offset="0.58" stop-color="#8769B2" />
            <stop offset="0.61" stop-color="#B4BBD3" />
            <stop offset="0.75" stop-color="#C5CAD8" />
            <stop offset="0.93" stop-color="#D8DBE3" />
            <stop offset="0.94" stop-color="#DADDE5" />
        </radialGradient>
        <radialGradient id="paint14_radial_1519_24155" cx="0" cy="0" r="1" gradientUnits="userSpaceOnUse"
            gradientTransform="translate(314.471 224.865) scale(114.812 97.8044)">
            <stop offset="0.53" stop-color="#8769B2" />
            <stop offset="0.61" stop-color="#B4BBD3" />
            <stop offset="0.75" stop-color="#C5CAD8" />
            <stop offset="0.88" stop-color="#D8DCE6" />
            <stop offset="0.94" stop-color="#E4E7EF" />
            <stop offset="1" stop-color="#D1D5E0" />
        </radialGradient>
        <linearGradient id="paint15_linear_1519_24155" x1="556.692" y1="332.105" x2="271.676" y2="332.891"
            gradientUnits="userSpaceOnUse">
            <stop offset="0.84" stop-color="#680FD2" stop-opacity="0.11" />
            <stop offset="0.85" stop-color="#680FD2" />
        </linearGradient>
        <radialGradient id="paint16_radial_1519_24155" cx="0" cy="0" r="1" gradientUnits="userSpaceOnUse"
            gradientTransform="translate(315.482 385.159) scale(48.091 48.1967)">
            <stop offset="0.76" stop-color="#645082" />
            <stop offset="0.8" stop-color="#695686" stop-opacity="0.95" />
            <stop offset="0.84" stop-color="#786893" stop-opacity="0.81" />
            <stop offset="0.9" stop-color="#9086A8" stop-opacity="0.59" />
            <stop offset="0.96" stop-color="#B2B0C5" stop-opacity="0.28" />
            <stop offset="1" stop-color="#D1D5E0" stop-opacity="0" />
        </radialGradient>
        <radialGradient id="paint17_radial_1519_24155" cx="0" cy="0" r="1" gradientUnits="userSpaceOnUse"
            gradientTransform="translate(334.293 140.187) scale(142.663 111.97)">
            <stop offset="0.09" stop-color="white" />
            <stop offset="0.26" stop-color="#FCFCFD" />
            <stop offset="0.37" stop-color="#F4F5F8" />
            <stop offset="0.46" stop-color="#E5E8F0" />
            <stop offset="0.54" stop-color="#D1D5E4" />
            <stop offset="0.61" stop-color="#B7BED5" />
            <stop offset="0.62" stop-color="#B4BBD3" />
            <stop offset="0.72" stop-color="#C5CAD8" />
            <stop offset="1" stop-color="#D3D5DD" />
        </radialGradient>
        <radialGradient id="paint18_radial_1519_24155" cx="0" cy="0" r="1" gradientUnits="userSpaceOnUse"
            gradientTransform="translate(315.697 105.847) scale(59.205 37.8517)">
            <stop offset="0.76" stop-color="white" stop-opacity="0" />
            <stop offset="0.83" stop-color="#C7A6EE" stop-opacity="0.37" />
            <stop offset="0.91" stop-color="#9455DF" stop-opacity="0.71" />
            <stop offset="0.97" stop-color="#7422D5" stop-opacity="0.92" />
            <stop offset="1" stop-color="#680FD2" />
        </radialGradient>
        <radialGradient id="paint19_radial_1519_24155" cx="0" cy="0" r="1" gradientUnits="userSpaceOnUse"
            gradientTransform="translate(315.689 187.788) rotate(89.98) scale(85.933 136.334)">
            <stop offset="0.66" stop-color="white" stop-opacity="0" />
            <stop offset="0.67" stop-color="white" stop-opacity="0.19" />
            <stop offset="0.68" stop-color="white" stop-opacity="0.37" />
            <stop offset="0.69" stop-color="white" stop-opacity="0.51" />
            <stop offset="0.7" stop-color="white" stop-opacity="0.62" />
            <stop offset="0.71" stop-color="white" stop-opacity="0.68" />
            <stop offset="0.72" stop-color="white" stop-opacity="0.7" />
            <stop offset="0.74" stop-color="white" stop-opacity="0.62" />
            <stop offset="0.76" stop-color="white" stop-opacity="0.43" />
            <stop offset="0.81" stop-color="white" stop-opacity="0.11" />
            <stop offset="0.82" stop-color="white" stop-opacity="0" />
        </radialGradient>
        <radialGradient id="paint20_radial_1519_24155" cx="0" cy="0" r="1" gradientUnits="userSpaceOnUse"
            gradientTransform="translate(300.773 216.333) rotate(0.260571) scale(174.968 45.5917)">
            <stop offset="0.15" stop-color="#680FD2" />
            <stop offset="0.97" stop-color="#680FD2" />
        </radialGradient>
        <radialGradient id="paint21_radial_1519_24155" cx="0" cy="0" r="1" gradientUnits="userSpaceOnUse"
            gradientTransform="translate(316.719 139.617) rotate(89.98) scale(88.9216 168.581)">
            <stop offset="0.65" stop-color="white" stop-opacity="0" />
            <stop offset="0.67" stop-color="white" stop-opacity="0.17" />
            <stop offset="0.68" stop-color="white" stop-opacity="0.31" />
            <stop offset="0.7" stop-color="white" stop-opacity="0.42" />
            <stop offset="0.72" stop-color="white" stop-opacity="0.48" />
            <stop offset="0.73" stop-color="white" stop-opacity="0.5" />
            <stop offset="0.75" stop-color="white" stop-opacity="0.42" />
            <stop offset="0.78" stop-color="white" stop-opacity="0.23" />
            <stop offset="0.82" stop-color="white" stop-opacity="0" />
        </radialGradient>
        <linearGradient id="paint22_linear_1519_24155" x1="316.664" y1="237.067" x2="317.284" y2="289.283"
            gradientUnits="userSpaceOnUse">
            <stop offset="0.31" stop-color="white" stop-opacity="0" />
            <stop offset="0.36" stop-color="#FEF5F1" stop-opacity="0.14" />
            <stop offset="0.46" stop-color="#FCE6DA" stop-opacity="0.36" />
            <stop offset="0.56" stop-color="#FBD8C7" stop-opacity="0.56" />
            <stop offset="0.65" stop-color="#FACEB7" stop-opacity="0.72" />
            <stop offset="0.74" stop-color="#F9C5AA" stop-opacity="0.84" />
            <stop offset="0.83" stop-color="#F9BFA2" stop-opacity="0.93" />
            <stop offset="0.92" stop-color="#F9BC9C" stop-opacity="0.98" />
            <stop offset="1" stop-color="#F9BB9B" />
        </linearGradient>
        <clipPath id="clip0_1519_24155">
            <rect width="636" height="627" fill="white" />
        </clipPath>
    </defs>
</svg>