<svg width="26" height="27" viewBox="0 0 26 27" fill="none" xmlns="http://www.w3.org/2000/svg">
    <path
        d="M19.1826 8.9219e-08C20.1754 -0.000199671 21.1382 0.335052 21.9099 0.949667C22.6815 1.56428 23.2153 2.42098 23.4218 3.37642L23.4666 3.62511L25.9321 19.683C26.0629 20.5661 26.0044 21.4664 25.7603 22.3259C25.5162 23.1854 25.092 23.9851 24.5149 24.6737C23.9378 25.3622 23.2206 25.9242 22.4095 26.3237C21.5983 26.7231 20.7112 26.9511 19.8051 26.9929L19.5004 27H6.50126C5.59448 27.0002 4.69768 26.8138 3.86852 26.4526C3.03935 26.0915 2.29617 25.5636 1.68675 24.903C1.07732 24.2424 0.615142 23.4636 0.329914 22.6167C0.0446857 21.7699 -0.0572772 20.8736 0.0305798 19.9857L0.0681328 19.683L2.53508 3.62511C2.6836 2.65924 3.16475 1.77286 3.89803 1.11427C4.63131 0.455673 5.57223 0.0648199 6.56336 0.00710551L6.81901 8.9219e-08H19.1826ZM19.5004 17.0526H6.50126C5.56259 17.0504 4.65993 17.4079 3.9846 18.0493C3.30927 18.6907 2.91435 19.5656 2.88355 20.4887C2.85275 21.4117 3.18848 22.3103 3.8196 22.9939C4.45071 23.6775 5.32759 24.0925 6.26438 24.1508L6.50126 24.1579H19.5004C20.439 24.1601 21.3417 23.8027 22.017 23.1613C22.6924 22.5198 23.0873 21.6449 23.1181 20.7219C23.1489 19.7988 22.8132 18.9003 22.182 18.2167C21.5509 17.533 20.674 17.1181 19.7373 17.0597L19.5004 17.0526ZM18.7782 19.1842C19.1613 19.1842 19.5287 19.3339 19.7995 19.6004C20.0704 19.8669 20.2226 20.2284 20.2226 20.6053C20.2226 20.9821 20.0704 21.3436 19.7995 21.6101C19.5287 21.8766 19.1613 22.0263 18.7782 22.0263H13.0008C12.6178 22.0263 12.2504 21.8766 11.9795 21.6101C11.7086 21.3436 11.5565 20.9821 11.5565 20.6053C11.5565 20.2284 11.7086 19.8669 11.9795 19.6004C12.2504 19.3339 12.6178 19.1842 13.0008 19.1842H18.7782ZM7.22343 19.1842C7.60649 19.1842 7.97387 19.3339 8.24474 19.6004C8.5156 19.8669 8.66778 20.2284 8.66778 20.6053C8.66778 20.9821 8.5156 21.3436 8.24474 21.6101C7.97387 21.8766 7.60649 22.0263 7.22343 22.0263C6.84036 22.0263 6.47299 21.8766 6.20212 21.6101C5.93125 21.3436 5.77908 20.9821 5.77908 20.6053C5.77908 20.2284 5.93125 19.8669 6.20212 19.6004C6.47299 19.3339 6.84036 19.1842 7.22343 19.1842Z"
        fill="#F8F8F8" />
</svg>